<svg width="1600" height="900" viewBox="0 0 1600 900" fill="none" xmlns="http://www.w3.org/2000/svg">
  <rect width="1600" height="900" fill="#0F172A"/>
  <rect x="52" y="52" width="1496" height="796" fill="#111827" stroke="#60A5FA" stroke-width="4"/>
  <rect x="92" y="96" width="1416" height="72" fill="#1D4ED8"/>
  <circle cx="130" cy="132" r="12" fill="#DBEAFE"/>
  <circle cx="170" cy="132" r="12" fill="#93C5FD"/>
  <circle cx="210" cy="132" r="12" fill="#60A5FA"/>
  <rect x="252" y="114" width="280" height="36" fill="#DBEAFE" fill-opacity="0.18"/>
  <rect x="92" y="208" width="440" height="556" fill="#E0F2FE" fill-opacity="0.08" stroke="#38BDF8" stroke-width="2" stroke-dasharray="14 14"/>
  <rect x="564" y="208" width="412" height="250" fill="#0EA5E9" fill-opacity="0.15" stroke="#38BDF8" stroke-width="2"/>
  <rect x="1008" y="208" width="500" height="250" fill="#1E293B" stroke="#475569" stroke-width="2"/>
  <rect x="564" y="490" width="944" height="274" fill="#111827" stroke="#334155" stroke-width="2"/>
  <rect x="598" y="250" width="240" height="18" fill="#E2E8F0" fill-opacity="0.86"/>
  <rect x="598" y="288" width="330" height="16" fill="#CBD5E1" fill-opacity="0.56"/>
  <rect x="598" y="324" width="284" height="16" fill="#CBD5E1" fill-opacity="0.38"/>
  <rect x="1048" y="250" width="260" height="20" fill="#F8FAFC" fill-opacity="0.84"/>
  <rect x="1048" y="290" width="352" height="16" fill="#CBD5E1" fill-opacity="0.52"/>
  <rect x="1048" y="324" width="220" height="16" fill="#CBD5E1" fill-opacity="0.38"/>
  <rect x="600" y="534" width="260" height="170" fill="#2563EB" fill-opacity="0.18" stroke="#60A5FA" stroke-width="2"/>
  <rect x="890" y="534" width="260" height="170" fill="#10B981" fill-opacity="0.12" stroke="#34D399" stroke-width="2"/>
  <rect x="1180" y="534" width="292" height="170" fill="#F59E0B" fill-opacity="0.12" stroke="#FBBF24" stroke-width="2"/>
  <text x="92" y="812" fill="#F8FAFC" font-family="Arial, sans-serif" font-size="54" font-weight="700">Crazy eCommerce</text>
  <text x="92" y="856" fill="#93C5FD" font-family="Arial, sans-serif" font-size="28">Placeholder storefront preview - replace with final screenshots later</text>
</svg>
