<svg width="1600" height="900" viewBox="0 0 1600 900" fill="none" xmlns="http://www.w3.org/2000/svg">
  <rect width="1600" height="900" fill="#020617"/>
  <rect x="56" y="56" width="1488" height="788" fill="#0F172A" stroke="#38BDF8" stroke-width="4"/>
  <rect x="56" y="56" width="284" height="788" fill="#111827" stroke="#1E293B" stroke-width="2"/>
  <rect x="384" y="96" width="1112" height="86" fill="#1D4ED8" fill-opacity="0.2" stroke="#60A5FA" stroke-width="2"/>
  <rect x="384" y="224" width="340" height="210" fill="#1E293B" stroke="#475569" stroke-width="2"/>
  <rect x="770" y="224" width="340" height="210" fill="#1E293B" stroke="#475569" stroke-width="2"/>
  <rect x="1156" y="224" width="340" height="210" fill="#1E293B" stroke="#475569" stroke-width="2"/>
  <rect x="384" y="478" width="1112" height="324" fill="#111827" stroke="#334155" stroke-width="2"/>
  <rect x="102" y="110" width="188" height="18" fill="#E2E8F0" fill-opacity="0.84"/>
  <rect x="102" y="156" width="160" height="14" fill="#94A3B8" fill-opacity="0.6"/>
  <rect x="102" y="204" width="184" height="14" fill="#94A3B8" fill-opacity="0.34"/>
  <rect x="426" y="126" width="304" height="20" fill="#F8FAFC" fill-opacity="0.86"/>
  <rect x="426" y="258" width="200" height="16" fill="#E2E8F0" fill-opacity="0.72"/>
  <rect x="426" y="296" width="176" height="16" fill="#CBD5E1" fill-opacity="0.42"/>
  <rect x="812" y="258" width="224" height="16" fill="#E2E8F0" fill-opacity="0.72"/>
  <rect x="812" y="296" width="184" height="16" fill="#CBD5E1" fill-opacity="0.42"/>
  <rect x="1198" y="258" width="214" height="16" fill="#E2E8F0" fill-opacity="0.72"/>
  <rect x="1198" y="296" width="176" height="16" fill="#CBD5E1" fill-opacity="0.42"/>
  <path d="M442 710L544 620L640 666L738 560L842 600L940 520L1044 576L1148 468L1248 530L1360 418L1456 470" stroke="#22C55E" stroke-width="8" stroke-linecap="round" stroke-linejoin="round"/>
  <text x="92" y="814" fill="#F8FAFC" font-family="Arial, sans-serif" font-size="54" font-weight="700">Crazy eCommerce Admin</text>
  <text x="92" y="858" fill="#67E8F9" font-family="Arial, sans-serif" font-size="28">Placeholder dashboard preview - swap with final admin visuals later</text>
</svg>
