<svg width="1600" height="900" viewBox="0 0 1600 900" fill="none" xmlns="http://www.w3.org/2000/svg">
  <rect width="1600" height="900" fill="#0F172A"/>
  <rect x="92" y="82" width="1416" height="736" rx="32" fill="#F8FAFC" fill-opacity="0.16" stroke="#FFFFFF" stroke-opacity="0.2" stroke-width="2"/>
  <rect x="92" y="82" width="1416" height="78" rx="32" fill="#FFFFFF" fill-opacity="0.18"/>
  <circle cx="146" cy="121" r="12" fill="#F87171"/>
  <circle cx="184" cy="121" r="12" fill="#FBBF24"/>
  <circle cx="222" cy="121" r="12" fill="#4ADE80"/>
  <rect x="148" y="218" width="320" height="538" rx="26" fill="#FFFFFF" fill-opacity="0.18" stroke="#FFFFFF" stroke-opacity="0.18" stroke-width="2"/>
  <rect x="518" y="218" width="934" height="538" rx="26" fill="#FFFFFF" fill-opacity="0.12" stroke="#FFFFFF" stroke-opacity="0.18" stroke-width="2"/>
  <rect x="564" y="282" width="368" height="26" rx="13" fill="#FFFFFF" fill-opacity="0.36"/>
  <rect x="564" y="336" width="520" height="18" rx="9" fill="#FFFFFF" fill-opacity="0.22"/>
  <rect x="564" y="374" width="472" height="18" rx="9" fill="#FFFFFF" fill-opacity="0.16"/>
  <rect x="564" y="444" width="256" height="214" rx="20" fill="#2563EB" fill-opacity="0.18" stroke="#93C5FD" stroke-width="2"/>
  <rect x="856" y="444" width="256" height="214" rx="20" fill="#F97316" fill-opacity="0.16" stroke="#FDBA74" stroke-width="2"/>
  <rect x="1148" y="444" width="256" height="214" rx="20" fill="#14B8A6" fill-opacity="0.14" stroke="#5EEAD4" stroke-width="2"/>
  <text x="120" y="812" fill="#F8FAFC" font-family="Arial, sans-serif" font-size="54" font-weight="700">Portfolio OS Windows</text>
  <text x="120" y="856" fill="#BFDBFE" font-family="Arial, sans-serif" font-size="28">Placeholder app-window preview - replace with polished in-app screenshots later</text>
</svg>
